<?xml version="1.0" standalone="no"?><!DOCTYPE svg PUBLIC "-//W3C//DTD SVG 1.1//EN" "http://www.w3.org/Graphics/SVG/1.1/DTD/svg11.dtd"><svg t="1615954907173" class="icon" viewBox="0 0 1024 1024" version="1.1" xmlns="http://www.w3.org/2000/svg" p-id="3643" xmlns:xlink="http://www.w3.org/1999/xlink" width="200" height="200"><defs><style type="text/css"></style></defs><path d="M802 664v146c0 7.7-6.3 14-14 14H236c-7.7 0-14-6.3-14-14V664c0-5.5-4.5-10-10-10h-50c-5.5 0-10 4.5-10 10v170c0 33.1 26.9 60 60 60h600c33.1 0 60-26.9 60-60V664c0-5.5-4.5-10-10-10h-50c-5.5 0-10 4.5-10 10z" p-id="3644"></path><path d="M547 697V247.5l173.6 173.6c13.7 13.7 35.8 13.7 49.5 0 13.7-13.7 13.7-35.8 0-49.5L536.8 138.3c-0.4-0.4-0.8-0.8-1.3-1.2-0.2-0.2-0.4-0.4-0.6-0.5-0.2-0.2-0.4-0.4-0.7-0.6-0.3-0.2-0.5-0.4-0.8-0.6-0.2-0.1-0.4-0.3-0.5-0.4l-0.9-0.6c-0.2-0.1-0.3-0.2-0.5-0.3-0.3-0.2-0.6-0.4-1-0.6-0.2-0.1-0.3-0.2-0.5-0.3-0.3-0.2-0.6-0.4-1-0.5-0.2-0.1-0.4-0.2-0.5-0.3-0.3-0.2-0.6-0.3-0.9-0.5l-0.6-0.3c-0.3-0.1-0.6-0.3-0.8-0.4-0.2-0.1-0.5-0.2-0.7-0.3-0.3-0.1-0.5-0.2-0.8-0.3l-0.9-0.3c-0.2-0.1-0.4-0.2-0.7-0.2-0.3-0.1-0.6-0.2-1-0.3-0.2-0.1-0.4-0.1-0.6-0.2-0.4-0.1-0.7-0.2-1.1-0.3-0.2 0-0.4-0.1-0.6-0.1-0.4-0.1-0.7-0.2-1.1-0.2-0.2 0-0.4-0.1-0.6-0.1-0.4-0.1-0.7-0.1-1.1-0.2-0.2 0-0.4-0.1-0.7-0.1-0.3 0-0.7-0.1-1-0.1-0.3 0-0.6 0-0.9-0.1-0.3 0-0.5 0-0.8-0.1-1.2-0.1-2.3-0.1-3.5 0-0.3 0-0.5 0-0.8 0.1-0.3 0-0.6 0-0.9 0.1-0.3 0-0.7 0.1-1 0.1-0.2 0-0.4 0.1-0.7 0.1-0.4 0.1-0.7 0.1-1.1 0.2-0.2 0-0.4 0.1-0.6 0.1-0.4 0.1-0.7 0.2-1.1 0.2-0.2 0-0.4 0.1-0.6 0.1-0.4 0.1-0.7 0.2-1.1 0.3-0.2 0.1-0.4 0.1-0.6 0.2-0.3 0.1-0.6 0.2-1 0.3-0.2 0.1-0.5 0.1-0.7 0.2l-0.9 0.3c-0.3 0.1-0.5 0.2-0.8 0.3-0.2 0.1-0.5 0.2-0.7 0.3-0.3 0.1-0.6 0.3-0.8 0.4l-0.6 0.3c-0.3 0.2-0.6 0.3-0.9 0.5-0.2 0.1-0.4 0.2-0.5 0.3-0.3 0.2-0.6 0.4-1 0.6-0.2 0.1-0.3 0.2-0.5 0.3-0.3 0.2-0.6 0.4-1 0.6-0.2 0.1-0.3 0.2-0.5 0.3-0.3 0.2-0.6 0.4-0.9 0.7-0.2 0.1-0.3 0.3-0.5 0.4-0.3 0.2-0.5 0.4-0.8 0.6-0.2 0.2-0.4 0.4-0.7 0.6-0.2 0.2-0.4 0.4-0.6 0.5l-1.2 1.2-233.1 233.1c-13.7 13.7-13.7 35.8 0 49.5 13.7 13.7 35.8 13.7 49.5 0L477 247.5V697c0 19.3 15.7 35 35 35s35-15.7 35-35z" p-id="3645"></path></svg>